<?xml version="1.0" standalone="no"?>
 <!DOCTYPE svg PUBLIC "-//W3C//DTD SVG 1.1//EN" 
 "http://www.w3.org/Graphics/SVG/1.1/DTD/svg11.dtd"> 
<svg xmlns="http://www.w3.org/2000/svg" version="1.1" 
    width="21.0007cm" height="29.7002cm" viewBox="0 0 82680 116930 ">
<title>SVG Picture created as trs_slave_board_v3--brd.svg date 2015/05/21 09:57:06 </title>
  <desc>Picture generated by PCBNEW </desc>
<g style="fill:#000000; fill-opacity:1;stroke:#000000; stroke-opacity:1;
stroke-linecap:round; stroke-linejoin:round; "
 transform="translate(0 0) scale(1 1)">
</g>
<g style="fill:#000000; fill-opacity:0.0; 
stroke:#000000; stroke-width:39.3701; stroke-opacity:1; 
stroke-linecap:round; stroke-linejoin:round;">
<path d="M4000 4000
L78680 4000
L78680 112930
L4000 112930
L4000 4000
" />
<path d="M4700 4700
L77980 4700
L77980 112230
L4700 112230
L4700 4700
" />
<path d="M28890 4000
L28890 4700
" />
<path d="M16592 4552
L16307 4552
" />
<path d="M16450 4552
L16450 4052
L16402 4123
L16354 4171
L16307 4195
" />
<path d="M28890 112930
L28890 112230
" />
<path d="M16592 112782
L16307 112782
" />
<path d="M16450 112782
L16450 112282
L16402 112353
L16354 112401
L16307 112425
" />
<path d="M53780 4000
L53780 4700
" />
<path d="M41197 4100
L41220 4076
L41268 4052
L41387 4052
L41435 4076
L41459 4100
L41482 4147
L41482 4195
L41459 4266
L41173 4552
L41482 4552
" />
<path d="M53780 112930
L53780 112230
" />
<path d="M41197 112330
L41220 112306
L41268 112282
L41387 112282
L41435 112306
L41459 112330
L41482 112377
L41482 112425
L41459 112496
L41173 112782
L41482 112782
" />
<path d="M66063 4052
L66372 4052
L66206 4242
L66277 4242
L66325 4266
L66349 4290
L66372 4338
L66372 4457
L66349 4504
L66325 4528
L66277 4552
L66134 4552
L66087 4528
L66063 4504
" />
<path d="M66063 112282
L66372 112282
L66206 112472
L66277 112472
L66325 112496
L66349 112520
L66372 112568
L66372 112687
L66349 112734
L66325 112758
L66277 112782
L66134 112782
L66087 112758
L66063 112734
" />
<path d="M4000 25780
L4700 25780
" />
<path d="M4230 14949
L4469 14949
" />
<path d="M4183 15092
L4350 14592
L4516 15092
" />
<path d="M78680 25780
L77980 25780
" />
<path d="M78210 14949
L78449 14949
" />
<path d="M78163 15092
L78330 14592
L78496 15092
" />
<path d="M4000 47560
L4700 47560
" />
<path d="M4385 36610
L4457 36634
L4480 36658
L4504 36705
L4504 36777
L4480 36824
L4457 36848
L4409 36872
L4219 36872
L4219 36372
L4385 36372
L4433 36396
L4457 36420
L4480 36467
L4480 36515
L4457 36562
L4433 36586
L4385 36610
L4219 36610
" />
<path d="M78680 47560
L77980 47560
" />
<path d="M78365 36610
L78437 36634
L78460 36658
L78484 36705
L78484 36777
L78460 36824
L78437 36848
L78389 36872
L78199 36872
L78199 36372
L78365 36372
L78413 36396
L78437 36420
L78460 36467
L78460 36515
L78437 36562
L78413 36586
L78365 36610
L78199 36610
" />
<path d="M4000 69340
L4700 69340
" />
<path d="M4504 58604
L4480 58628
L4409 58652
L4361 58652
L4290 58628
L4242 58580
L4219 58533
L4195 58438
L4195 58366
L4219 58271
L4242 58223
L4290 58176
L4361 58152
L4409 58152
L4480 58176
L4504 58200
" />
<path d="M78680 69340
L77980 69340
" />
<path d="M78484 58604
L78460 58628
L78389 58652
L78341 58652
L78270 58628
L78222 58580
L78199 58533
L78175 58438
L78175 58366
L78199 58271
L78222 58223
L78270 58176
L78341 58152
L78389 58152
L78460 58176
L78484 58200
" />
<path d="M4000 91120
L4700 91120
" />
<path d="M4219 80432
L4219 79932
L4338 79932
L4409 79956
L4457 80003
L4480 80051
L4504 80146
L4504 80218
L4480 80313
L4457 80360
L4409 80408
L4338 80432
L4219 80432
" />
<path d="M78680 91120
L77980 91120
" />
<path d="M78199 80432
L78199 79932
L78318 79932
L78389 79956
L78437 80003
L78460 80051
L78484 80146
L78484 80218
L78460 80313
L78437 80360
L78389 80408
L78318 80432
L78199 80432
" />
<path d="M4242 101950
L4409 101950
" />
<path d="M4480 102212
L4242 102212
L4242 101712
L4480 101712
" />
<path d="M78222 101950
L78389 101950
" />
<path d="M78460 102212
L78222 102212
L78222 101712
L78460 101712
" />
<path d="M45130 110672
L45205 110072
L45347 110072
L45430 110101
L45480 110158
L45501 110215
L45515 110330
L45505 110415
L45462 110530
L45426 110587
L45362 110644
L45272 110672
L45130 110672
" />
<path d="M45987 110672
L46026 110358
L46005 110301
L45951 110272
L45837 110272
L45776 110301
" />
<path d="M45990 110644
L45930 110672
L45787 110672
L45733 110644
L45712 110587
L45719 110530
L45755 110472
L45815 110444
L45958 110444
L46019 110415
" />
<path d="M46237 110272
L46465 110272
" />
<path d="M46347 110072
L46283 110587
L46305 110644
L46358 110672
L46415 110672
" />
<path d="M46847 110644
L46787 110672
L46672 110672
L46619 110644
L46597 110587
L46626 110358
L46662 110301
L46722 110272
L46837 110272
L46890 110301
L46912 110358
L46905 110415
L46612 110472
" />
<path d="M47137 110615
L47162 110644
L47130 110672
L47105 110644
L47137 110615
L47130 110672
" />
<path d="M47176 110301
L47201 110330
L47169 110358
L47144 110330
L47176 110301
L47169 110358
" />
<path d="M47912 110130
L47944 110101
L48005 110072
L48147 110072
L48201 110101
L48226 110130
L48247 110187
L48240 110244
L48201 110330
L47815 110672
L48187 110672
" />
<path d="M48758 110672
L48415 110672
" />
<path d="M48587 110672
L48662 110072
L48594 110158
L48530 110215
L48469 110244
" />
<path d="M49472 110672
L49522 110272
" />
<path d="M49515 110330
L49547 110301
L49608 110272
L49694 110272
L49747 110301
L49769 110358
L49730 110672
" />
<path d="M49769 110358
L49805 110301
L49865 110272
L49951 110272
L50005 110301
L50026 110358
L49987 110672
" />
<path d="M50530 110672
L50569 110358
L50547 110301
L50494 110272
L50380 110272
L50319 110301
" />
<path d="M50533 110644
L50472 110672
L50330 110672
L50276 110644
L50255 110587
L50262 110530
L50297 110472
L50358 110444
L50501 110444
L50562 110415
" />
<path d="M50808 110272
L50901 110672
" />
<path d="M51094 110272
L50901 110672
L50826 110815
L50794 110844
L50733 110872
" />
<path d="M51769 110130
L51801 110101
L51862 110072
L52005 110072
L52058 110101
L52083 110130
L52105 110187
L52097 110244
L52058 110330
L51672 110672
L52044 110672
" />
<path d="M52490 110072
L52547 110072
L52601 110101
L52626 110130
L52647 110187
L52662 110301
L52644 110444
L52601 110558
L52565 110615
L52533 110644
L52472 110672
L52415 110672
L52362 110644
L52337 110615
L52315 110558
L52301 110444
L52319 110301
L52362 110187
L52397 110130
L52430 110101
L52490 110072
" />
<path d="M53187 110672
L52844 110672
" />
<path d="M53015 110672
L53090 110072
L53022 110158
L52958 110215
L52897 110244
" />
<path d="M53805 110072
L53519 110072
L53455 110358
L53487 110330
L53547 110301
L53690 110301
L53744 110330
L53769 110358
L53790 110415
L53772 110558
L53737 110615
L53705 110644
L53644 110672
L53501 110672
L53447 110644
L53422 110615
" />
<path d="M36722 111872
L36722 111272
" />
<path d="M37065 111872
L36808 111530
" />
<path d="M37065 111272
L36722 111615
" />
<path d="M37322 111872
L37322 111472
" />
<path d="M37322 111272
L37294 111301
L37322 111330
L37351 111301
L37322 111272
L37322 111330
" />
<path d="M37951 111815
L37922 111844
L37837 111872
L37780 111872
L37694 111844
L37637 111787
L37608 111730
L37580 111615
L37580 111530
L37608 111415
L37637 111358
L37694 111301
L37780 111272
L37837 111272
L37922 111301
L37951 111330
" />
<path d="M38465 111872
L38465 111558
L38437 111501
L38380 111472
L38265 111472
L38208 111501
" />
<path d="M38465 111844
L38408 111872
L38265 111872
L38208 111844
L38180 111787
L38180 111730
L38208 111672
L38265 111644
L38408 111644
L38465 111615
" />
<path d="M39008 111872
L39008 111272
" />
<path d="M39008 111844
L38951 111872
L38837 111872
L38780 111844
L38751 111815
L38722 111758
L38722 111587
L38751 111530
L38780 111501
L38837 111472
L38951 111472
L39008 111501
" />
<path d="M39751 111558
L39951 111558
" />
<path d="M40037 111872
L39751 111872
L39751 111272
L40037 111272
" />
<path d="M40294 111815
L40322 111844
L40294 111872
L40265 111844
L40294 111815
L40294 111872
" />
<path d="M40579 111872
L40579 111272
L40722 111272
L40808 111301
L40865 111358
L40894 111415
L40922 111530
L40922 111615
L40894 111730
L40865 111787
L40808 111844
L40722 111872
L40579 111872
" />
<path d="M41179 111815
L41208 111844
L41179 111872
L41151 111844
L41179 111815
L41179 111872
" />
<path d="M41437 111701
L41722 111701
" />
<path d="M41379 111872
L41579 111272
L41779 111872
" />
<path d="M41979 111815
L42008 111844
L41979 111872
L41951 111844
L41979 111815
L41979 111872
" />
<path d="M70272 110672
L70108 110387
" />
<path d="M69930 110672
L70005 110072
L70233 110072
L70287 110101
L70312 110130
L70333 110187
L70322 110272
L70287 110330
L70255 110358
L70194 110387
L69965 110387
" />
<path d="M70762 110644
L70701 110672
L70587 110672
L70533 110644
L70512 110587
L70540 110358
L70576 110301
L70637 110272
L70751 110272
L70805 110301
L70826 110358
L70819 110415
L70526 110472
" />
<path d="M71037 110272
L71130 110672
L71322 110272
" />
<path d="M71508 110615
L71533 110644
L71501 110672
L71476 110644
L71508 110615
L71501 110672
" />
<path d="M71547 110301
L71572 110330
L71540 110358
L71515 110330
L71547 110301
L71540 110358
" />
<path d="M72558 110672
L72215 110672
" />
<path d="M72387 110672
L72462 110072
L72394 110158
L72330 110215
L72269 110244
" />
<path d="M72822 110615
L72847 110644
L72815 110672
L72790 110644
L72822 110615
L72815 110672
" />
<path d="M73290 110072
L73347 110072
L73401 110101
L73426 110130
L73447 110187
L73462 110301
L73444 110444
L73401 110558
L73365 110615
L73333 110644
L73272 110672
L73215 110672
L73162 110644
L73137 110615
L73115 110558
L73101 110444
L73119 110301
L73162 110187
L73197 110130
L73230 110101
L73290 110072
" />
<path d="M73680 110615
L73705 110644
L73672 110672
L73647 110644
L73680 110615
L73672 110672
" />
<path d="M74147 110072
L74205 110072
L74258 110101
L74283 110130
L74305 110187
L74319 110301
L74301 110444
L74258 110558
L74222 110615
L74190 110644
L74130 110672
L74072 110672
L74019 110644
L73994 110615
L73972 110558
L73958 110444
L73976 110301
L74019 110187
L74055 110130
L74087 110101
L74147 110072
" />
<path d="M36694 110644
L36780 110672
L36922 110672
L36980 110644
L37008 110615
L37037 110558
L37037 110501
L37008 110444
L36980 110415
L36922 110387
L36808 110358
L36751 110330
L36722 110301
L36694 110244
L36694 110187
L36722 110130
L36751 110101
L36808 110072
L36951 110072
L37037 110101
" />
<path d="M37294 110672
L37294 110272
" />
<path d="M37294 110072
L37265 110101
L37294 110130
L37322 110101
L37294 110072
L37294 110130
" />
<path d="M37522 110272
L37837 110272
L37522 110672
L37837 110672
" />
<path d="M38294 110644
L38237 110672
L38122 110672
L38065 110644
L38037 110587
L38037 110358
L38065 110301
L38122 110272
L38237 110272
L38294 110301
L38322 110358
L38322 110415
L38037 110472
" />
<path d="M38580 110615
L38608 110644
L38580 110672
L38551 110644
L38580 110615
L38580 110672
" />
<path d="M38580 110301
L38608 110330
L38580 110358
L38551 110330
L38580 110301
L38580 110358
" />
<path d="M39294 110501
L39580 110501
" />
<path d="M39237 110672
L39437 110072
L39637 110672
" />
<path d="M40094 110272
L40094 110672
" />
<path d="M39951 110044
L39808 110472
L40180 110472
" />
<path d="M69922 111872
L69922 111272
" />
<path d="M70465 111872
L70465 111272
" />
<path d="M70465 111844
L70408 111872
L70294 111872
L70237 111844
L70208 111815
L70180 111758
L70180 111587
L70208 111530
L70237 111501
L70294 111472
L70408 111472
L70465 111501
" />
<path d="M70751 111815
L70780 111844
L70751 111872
L70722 111844
L70751 111815
L70751 111872
" />
<path d="M70751 111501
L70780 111530
L70751 111558
L70722 111530
L70751 111501
L70751 111558
" />
<path d="M71808 111872
L71465 111872
" />
<path d="M71637 111872
L71637 111272
L71579 111358
L71522 111415
L71465 111444
" />
<path d="M72494 111244
L71980 112015
" />
<path d="M73008 111872
L72665 111872
" />
<path d="M72837 111872
L72837 111272
L72779 111358
L72722 111415
L72665 111444
" />
<path d="M36719 108872
L37062 108872
" />
<path d="M36815 109472
L36890 108872
" />
<path d="M37187 109472
L37237 109072
" />
<path d="M37262 108872
L37230 108901
L37255 108930
L37287 108901
L37262 108872
L37255 108930
" />
<path d="M37437 109072
L37665 109072
" />
<path d="M37547 108872
L37483 109387
L37505 109444
L37558 109472
L37615 109472
" />
<path d="M37901 109472
L37847 109444
L37826 109387
L37890 108872
" />
<path d="M38362 109444
L38301 109472
L38187 109472
L38133 109444
L38112 109387
L38140 109158
L38176 109101
L38237 109072
L38351 109072
L38405 109101
L38426 109158
L38419 109215
L38126 109272
" />
<path d="M38651 109415
L38676 109444
L38644 109472
L38619 109444
L38651 109415
L38644 109472
" />
<path d="M38690 109101
L38715 109130
L38683 109158
L38658 109130
L38690 109101
L38683 109158
" />
<path d="M39362 109444
L39444 109472
L39587 109472
L39647 109444
L39680 109415
L39715 109358
L39722 109301
L39701 109244
L39676 109215
L39622 109187
L39512 109158
L39458 109130
L39433 109101
L39412 109044
L39419 108987
L39455 108930
L39487 108901
L39547 108872
L39690 108872
L39772 108901
" />
<path d="M40044 109472
L39990 109444
L39969 109387
L40033 108872
" />
<path d="M40530 109472
L40569 109158
L40547 109101
L40494 109072
L40380 109072
L40319 109101
" />
<path d="M40533 109444
L40472 109472
L40330 109472
L40276 109444
L40255 109387
L40262 109330
L40297 109272
L40358 109244
L40501 109244
L40562 109215
" />
<path d="M40808 109072
L40901 109472
L41094 109072
" />
<path d="M41505 109444
L41444 109472
L41330 109472
L41276 109444
L41255 109387
L41283 109158
L41319 109101
L41380 109072
L41494 109072
L41547 109101
L41569 109158
L41562 109215
L41269 109272
" />
<path d="M42483 109158
L42565 109187
L42590 109215
L42612 109272
L42601 109358
L42565 109415
L42533 109444
L42472 109472
L42244 109472
L42319 108872
L42519 108872
L42572 108901
L42597 108930
L42619 108987
L42612 109044
L42576 109101
L42544 109130
L42483 109158
L42283 109158
" />
<path d="M42930 109472
L42876 109444
L42851 109415
L42830 109358
L42851 109187
L42887 109130
L42919 109101
L42980 109072
L43065 109072
L43119 109101
L43144 109130
L43165 109187
L43144 109358
L43108 109415
L43076 109444
L43015 109472
L42930 109472
" />
<path d="M43644 109472
L43683 109158
L43662 109101
L43608 109072
L43494 109072
L43433 109101
" />
<path d="M43647 109444
L43587 109472
L43444 109472
L43390 109444
L43369 109387
L43376 109330
L43412 109272
L43472 109244
L43615 109244
L43676 109215
" />
<path d="M43930 109472
L43980 109072
" />
<path d="M43965 109187
L44001 109130
L44033 109101
L44094 109072
L44151 109072
" />
<path d="M44558 109472
L44633 108872
" />
<path d="M44562 109444
L44501 109472
L44387 109472
L44333 109444
L44308 109415
L44287 109358
L44308 109187
L44344 109130
L44376 109101
L44437 109072
L44551 109072
L44605 109101
" />
<path d="M36922 106758
L36722 106758
" />
<path d="M36722 107072
L36722 106472
L37008 106472
" />
<path d="M37237 107072
L37237 106672
" />
<path d="M37237 106472
L37208 106501
L37237 106530
L37265 106501
L37237 106472
L37237 106530
" />
<path d="M37608 107072
L37551 107044
L37522 106987
L37522 106472
" />
<path d="M38065 107044
L38008 107072
L37894 107072
L37837 107044
L37808 106987
L37808 106758
L37837 106701
L37894 106672
L38008 106672
L38065 106701
L38094 106758
L38094 106815
L37808 106872
" />
<path d="M38351 107015
L38380 107044
L38351 107072
L38322 107044
L38351 107015
L38351 107072
" />
<path d="M38351 106701
L38380 106730
L38351 106758
L38322 106730
L38351 106701
L38351 106758
" />
<path d="M39008 106672
L39237 106672
" />
<path d="M39094 106472
L39094 106987
L39122 107044
L39180 107072
L39237 107072
" />
<path d="M39437 107072
L39437 106672
" />
<path d="M39437 106787
L39465 106730
L39494 106701
L39551 106672
L39608 106672
" />
<path d="M39780 107044
L39837 107072
L39951 107072
L40008 107044
L40037 106987
L40037 106958
L40008 106901
L39951 106872
L39865 106872
L39808 106844
L39780 106787
L39780 106758
L39808 106701
L39865 106672
L39951 106672
L40008 106701
" />
<path d="M40151 107130
L40608 107130
" />
<path d="M40722 107044
L40780 107072
L40894 107072
L40951 107044
L40980 106987
L40980 106958
L40951 106901
L40894 106872
L40808 106872
L40751 106844
L40722 106787
L40722 106758
L40751 106701
L40808 106672
L40894 106672
L40951 106701
" />
<path d="M41322 107072
L41265 107044
L41237 106987
L41237 106472
" />
<path d="M41808 107072
L41808 106758
L41780 106701
L41722 106672
L41608 106672
L41551 106701
" />
<path d="M41808 107044
L41751 107072
L41608 107072
L41551 107044
L41522 106987
L41522 106930
L41551 106872
L41608 106844
L41751 106844
L41808 106815
" />
<path d="M42037 106672
L42180 107072
L42322 106672
" />
<path d="M42780 107044
L42722 107072
L42608 107072
L42551 107044
L42522 106987
L42522 106758
L42551 106701
L42608 106672
L42722 106672
L42780 106701
L42808 106758
L42808 106815
L42522 106872
" />
<path d="M42922 107130
L43380 107130
" />
<path d="M43522 107072
L43522 106472
" />
<path d="M43522 106701
L43580 106672
L43694 106672
L43751 106701
L43780 106730
L43808 106787
L43808 106958
L43780 107015
L43751 107044
L43694 107072
L43580 107072
L43522 107044
" />
<path d="M44151 107072
L44094 107044
L44065 107015
L44037 106958
L44037 106787
L44065 106730
L44094 106701
L44151 106672
L44237 106672
L44294 106701
L44322 106730
L44351 106787
L44351 106958
L44322 107015
L44294 107044
L44237 107072
L44151 107072
" />
<path d="M44865 107072
L44865 106758
L44837 106701
L44780 106672
L44665 106672
L44608 106701
" />
<path d="M44865 107044
L44808 107072
L44665 107072
L44608 107044
L44580 106987
L44580 106930
L44608 106872
L44665 106844
L44808 106844
L44865 106815
" />
<path d="M45151 107072
L45151 106672
" />
<path d="M45151 106787
L45180 106730
L45208 106701
L45265 106672
L45322 106672
" />
<path d="M45780 107072
L45780 106472
" />
<path d="M45780 107044
L45722 107072
L45608 107072
L45551 107044
L45522 107015
L45494 106958
L45494 106787
L45522 106730
L45551 106701
L45608 106672
L45722 106672
L45780 106701
" />
<path d="M45922 107130
L46380 107130
" />
<path d="M46465 106672
L46608 107072
L46751 106672
" />
<path d="M46922 106472
L47294 106472
L47094 106701
L47180 106701
L47237 106730
L47265 106758
L47294 106815
L47294 106958
L47265 107015
L47237 107044
L47180 107072
L47008 107072
L46951 107044
L46922 107015
" />
<path d="M47551 107015
L47580 107044
L47551 107072
L47522 107044
L47551 107015
L47551 107072
" />
<path d="M47837 107072
L47837 106472
" />
<path d="M47894 106844
L48065 107072
" />
<path d="M48065 106672
L47837 106901
" />
<path d="M48322 107072
L48322 106672
" />
<path d="M48322 106472
L48294 106501
L48322 106530
L48351 106501
L48322 106472
L48322 106530
" />
<path d="M48865 107044
L48808 107072
L48694 107072
L48637 107044
L48608 107015
L48580 106958
L48580 106787
L48608 106730
L48637 106701
L48694 106672
L48808 106672
L48865 106701
" />
<path d="M49380 107072
L49380 106758
L49351 106701
L49294 106672
L49180 106672
L49122 106701
" />
<path d="M49380 107044
L49322 107072
L49180 107072
L49122 107044
L49094 106987
L49094 106930
L49122 106872
L49180 106844
L49322 106844
L49380 106815
" />
<path d="M49922 107072
L49922 106472
" />
<path d="M49922 107044
L49865 107072
L49751 107072
L49694 107044
L49665 107015
L49637 106958
L49637 106787
L49665 106730
L49694 106701
L49751 106672
L49865 106672
L49922 106701
" />
<path d="M50065 107130
L50522 107130
" />
<path d="M50665 106672
L50665 107272
" />
<path d="M50665 106701
L50722 106672
L50837 106672
L50894 106701
L50922 106730
L50951 106787
L50951 106958
L50922 107015
L50894 107044
L50837 107072
L50722 107072
L50665 107044
" />
<path d="M51465 107044
L51408 107072
L51294 107072
L51237 107044
L51208 107015
L51180 106958
L51180 106787
L51208 106730
L51237 106701
L51294 106672
L51408 106672
L51465 106701
" />
<path d="M51722 107072
L51722 106472
" />
<path d="M51722 106701
L51780 106672
L51894 106672
L51951 106701
L51980 106730
L52008 106787
L52008 106958
L51980 107015
L51951 107044
L51894 107072
L51780 107072
L51722 107044
" />
<path d="M36694 108244
L36780 108272
L36922 108272
L36980 108244
L37008 108215
L37037 108158
L37037 108101
L37008 108044
L36980 108015
L36922 107987
L36808 107958
L36751 107930
L36722 107901
L36694 107844
L36694 107787
L36722 107730
L36751 107701
L36808 107672
L36951 107672
L37037 107701
" />
<path d="M37294 108272
L37294 107672
" />
<path d="M37551 108272
L37551 107958
L37522 107901
L37465 107872
L37380 107872
L37322 107901
L37294 107930
" />
<path d="M38065 108244
L38008 108272
L37894 108272
L37837 108244
L37808 108187
L37808 107958
L37837 107901
L37894 107872
L38008 107872
L38065 107901
L38094 107958
L38094 108015
L37808 108072
" />
<path d="M38580 108244
L38522 108272
L38408 108272
L38351 108244
L38322 108187
L38322 107958
L38351 107901
L38408 107872
L38522 107872
L38580 107901
L38608 107958
L38608 108015
L38322 108072
" />
<path d="M38780 107872
L39008 107872
" />
<path d="M38865 107672
L38865 108187
L38894 108244
L38951 108272
L39008 108272
" />
<path d="M39208 108215
L39237 108244
L39208 108272
L39180 108244
L39208 108215
L39208 108272
" />
<path d="M39208 107901
L39237 107930
L39208 107958
L39180 107930
L39208 107901
L39208 107958
" />
<path d="M36719 105272
L37062 105272
" />
<path d="M36815 105872
L36890 105272
" />
<path d="M37187 105872
L37262 105272
" />
<path d="M37444 105872
L37483 105558
L37462 105501
L37408 105472
L37322 105472
L37262 105501
L37230 105530
" />
<path d="M37962 105844
L37901 105872
L37787 105872
L37733 105844
L37712 105787
L37740 105558
L37776 105501
L37837 105472
L37951 105472
L38005 105501
L38026 105558
L38019 105615
L37726 105672
" />
<path d="M39044 105872
L38880 105587
" />
<path d="M38701 105872
L38776 105272
L39005 105272
L39058 105301
L39083 105330
L39105 105387
L39094 105472
L39058 105530
L39026 105558
L38965 105587
L38737 105587
" />
<path d="M39387 105872
L39333 105844
L39308 105815
L39287 105758
L39308 105587
L39344 105530
L39376 105501
L39437 105472
L39522 105472
L39576 105501
L39601 105530
L39622 105587
L39601 105758
L39565 105815
L39533 105844
L39472 105872
L39387 105872
" />
<path d="M39844 105872
L39919 105272
" />
<path d="M39890 105501
L39951 105472
L40065 105472
L40119 105501
L40144 105530
L40165 105587
L40144 105758
L40108 105815
L40076 105844
L40015 105872
L39901 105872
L39847 105844
" />
<path d="M40472 105872
L40419 105844
L40394 105815
L40372 105758
L40394 105587
L40430 105530
L40462 105501
L40522 105472
L40608 105472
L40662 105501
L40687 105530
L40708 105587
L40687 105758
L40651 105815
L40619 105844
L40558 105872
L40472 105872
" />
<path d="M40894 105472
L41122 105472
" />
<path d="M41005 105272
L40940 105787
L40962 105844
L41015 105872
L41072 105872
" />
<path d="M41705 105844
L41787 105872
L41930 105872
L41990 105844
L42022 105815
L42058 105758
L42065 105701
L42044 105644
L42019 105615
L41965 105587
L41855 105558
L41801 105530
L41776 105501
L41755 105444
L41762 105387
L41797 105330
L41830 105301
L41890 105272
L42033 105272
L42115 105301
" />
<path d="M42265 105472
L42494 105472
" />
<path d="M42376 105272
L42312 105787
L42333 105844
L42387 105872
L42444 105872
" />
<path d="M42951 105472
L42901 105872
" />
<path d="M42694 105472
L42655 105787
L42676 105844
L42730 105872
L42815 105872
L42876 105844
L42908 105815
" />
<path d="M43444 105872
L43519 105272
" />
<path d="M43447 105844
L43387 105872
L43272 105872
L43219 105844
L43194 105815
L43172 105758
L43194 105587
L43230 105530
L43262 105501
L43322 105472
L43437 105472
L43490 105501
" />
<path d="M43730 105872
L43780 105472
" />
<path d="M43805 105272
L43772 105301
L43797 105330
L43830 105301
L43805 105272
L43797 105330
" />
<path d="M44101 105872
L44047 105844
L44022 105815
L44001 105758
L44022 105587
L44058 105530
L44090 105501
L44151 105472
L44237 105472
L44290 105501
L44315 105530
L44337 105587
L44315 105758
L44280 105815
L44247 105844
L44187 105872
L44101 105872
" />
<path d="M35980 105030
L35980 112230
" />
<path d="M35980 106230
L77980 106230
" />
<path d="M35980 105030
L77980 105030
" />
<path d="M35980 108630
L77980 108630
" />
<path d="M69180 109830
L69180 112230
" />
<path d="M35980 111030
L77980 111030
" />
<path d="M35980 109830
L77980 109830
" />
<path d="M42580 109830
L42580 111030
" />
</g>
<g style="fill:#000000; fill-opacity:0.0; 
stroke:#000000; stroke-width:98.4252; stroke-opacity:1; 
stroke-linecap:round; stroke-linejoin:round;">
<path d="M34665 57353
L34665 57578
" />
<path d="M35059 57465
L34665 57465
" />
<path d="M35059 57934
L34871 57803
" />
<path d="M35059 57709
L34665 57709
L34665 57859
L34684 57896
L34703 57915
L34740 57934
L34796 57934
L34834 57915
L34853 57896
L34871 57859
L34871 57709
" />
<path d="M35040 58084
L35059 58140
L35059 58234
L35040 58271
L35021 58290
L34984 58309
L34946 58309
L34909 58290
L34890 58271
L34871 58234
L34853 58159
L34834 58121
L34815 58103
L34778 58084
L34740 58084
L34703 58103
L34684 58121
L34665 58159
L34665 58253
L34684 58309
" />
<path d="M35690 56134
L35708 56190
L35708 56284
L35690 56322
L35671 56340
L35633 56359
L35596 56359
L35558 56340
L35540 56322
L35521 56284
L35502 56209
L35483 56172
L35465 56153
L35427 56134
L35390 56134
L35352 56153
L35334 56172
L35315 56209
L35315 56303
L35334 56359
" />
<path d="M35708 56584
L35690 56547
L35652 56528
L35315 56528
" />
<path d="M35708 56903
L35502 56903
L35465 56884
L35446 56847
L35446 56772
L35465 56734
" />
<path d="M35690 56903
L35708 56865
L35708 56772
L35690 56734
L35652 56715
L35615 56715
L35577 56734
L35558 56772
L35558 56865
L35540 56903
" />
<path d="M35446 57053
L35708 57146
L35446 57240
" />
<path d="M35690 57540
L35708 57503
L35708 57428
L35690 57390
L35652 57371
L35502 57371
L35465 57390
L35446 57428
L35446 57503
L35465 57540
L35502 57559
L35540 57559
L35577 57371
" />
<path d="M35502 58159
L35521 58215
L35540 58234
L35577 58253
L35633 58253
L35671 58234
L35690 58215
L35708 58178
L35708 58028
L35315 58028
L35315 58159
L35334 58196
L35352 58215
L35390 58234
L35427 58234
L35465 58215
L35483 58196
L35502 58159
L35502 58028
" />
<path d="M35708 58478
L35690 58440
L35671 58421
L35633 58403
L35521 58403
L35483 58421
L35465 58440
L35446 58478
L35446 58534
L35465 58571
L35483 58590
L35521 58609
L35633 58609
L35671 58590
L35690 58571
L35708 58534
L35708 58478
" />
<path d="M35708 58946
L35502 58946
L35465 58927
L35446 58890
L35446 58815
L35465 58778
" />
<path d="M35690 58946
L35708 58909
L35708 58815
L35690 58778
L35652 58759
L35615 58759
L35577 58778
L35558 58815
L35558 58909
L35540 58946
" />
<path d="M35708 59134
L35446 59134
" />
<path d="M35521 59134
L35483 59152
L35465 59171
L35446 59209
L35446 59246
" />
<path d="M35708 59546
L35315 59546
" />
<path d="M35690 59546
L35708 59509
L35708 59434
L35690 59396
L35671 59377
L35633 59359
L35521 59359
L35483 59377
L35465 59396
L35446 59434
L35446 59509
L35465 59546
" />
<path d="M36096 57006
L36358 57100
L36096 57193
" />
<path d="M36358 57550
L36358 57325
" />
<path d="M36358 57437
L35964 57437
L36021 57400
L36058 57362
L36077 57325
" />
<path d="M36321 57718
L36339 57737
L36358 57718
L36339 57700
L36321 57718
L36358 57718
" />
<path d="M35964 57981
L35964 58018
L35983 58056
L36002 58074
L36039 58093
L36114 58112
L36208 58112
L36283 58093
L36321 58074
L36339 58056
L36358 58018
L36358 57981
L36339 57943
L36321 57924
L36283 57906
L36208 57887
L36114 57887
L36039 57906
L36002 57924
L35983 57943
L35964 57981
" />
<path d="M36321 58281
L36339 58299
L36358 58281
L36339 58262
L36321 58281
L36358 58281
" />
<path d="M35964 58543
L35964 58581
L35983 58618
L36002 58637
L36039 58656
L36114 58674
L36208 58674
L36283 58656
L36321 58637
L36339 58618
L36358 58581
L36358 58543
L36339 58506
L36321 58487
L36283 58468
L36208 58449
L36114 58449
L36039 58468
L36002 58487
L35983 58506
L35964 58543
" />
</g>
<g style="fill:#000000; fill-opacity:0.0; 
stroke:#000000; stroke-width:59.0551; stroke-opacity:1; 
stroke-linecap:round; stroke-linejoin:round;">
<path d="M33500 41300
L33250 41300
" />
<path d="M33500 62300
L33250 62300
" />
<path d="M33500 62300
L47500 62300
" />
<path d="M47500 41300
L47500 62300
" />
<path d="M33500 41300
L47500 41300
" />
<path d="M33250 62300
L33250 41300
" />
</g>
<g style="fill:#000000; fill-opacity:0.0; 
stroke:#000000; stroke-width:39.3701; stroke-opacity:1; 
stroke-linecap:round; stroke-linejoin:round;">
</g>
<g style="fill:#000000; fill-opacity:1.0; 
stroke:#000000; stroke-width:39.3701; stroke-opacity:1; 
stroke-linecap:round; stroke-linejoin:round;">
<polyline style="fill-rule:evenodd;"
points="43619,45194
44080,45194
44080,45405
43619,45405
43619,45194
" /> 
<polyline style="fill-rule:evenodd;"
points="43619,45694
44080,45694
44080,45905
43619,45905
43619,45694
" /> 
<polyline style="fill-rule:evenodd;"
points="43619,46194
44080,46194
44080,46405
43619,46405
43619,46194
" /> 
<polyline style="fill-rule:evenodd;"
points="43619,46694
44080,46694
44080,46905
43619,46905
43619,46694
" /> 
<polyline style="fill-rule:evenodd;"
points="41419,46694
41880,46694
41880,46905
41419,46905
41419,46694
" /> 
<polyline style="fill-rule:evenodd;"
points="41419,46194
41880,46194
41880,46405
41419,46405
41419,46194
" /> 
<polyline style="fill-rule:evenodd;"
points="41419,45694
41880,45694
41880,45905
41419,45905
41419,45694
" /> 
<polyline style="fill-rule:evenodd;"
points="41419,45194
41880,45194
41880,45405
41419,45405
41419,45194
" /> 
<circle cx="40800" cy="47550" r="324.803" /> 
<circle cx="40800" cy="44550" r="324.803" /> 
<polyline style="fill-rule:evenodd;"
points="34719,51019
35280,51019
35280,51580
34719,51580
34719,51019
" /> 
<circle cx="36000" cy="51300" r="324.803" /> 
<circle cx="35000" cy="52300" r="324.803" /> 
<circle cx="36000" cy="52300" r="324.803" /> 
<circle cx="35000" cy="53300" r="324.803" /> 
<circle cx="36000" cy="53300" r="324.803" /> 
<circle cx="35000" cy="54300" r="324.803" /> 
<circle cx="36000" cy="54300" r="324.803" /> 
<circle cx="35000" cy="55300" r="324.803" /> 
<circle cx="36000" cy="55300" r="324.803" /> 
<polyline style="fill-rule:evenodd;"
points="45594,52044
46105,52044
46105,52555
45594,52555
45594,52044
" /> 
<circle cx="45850" cy="53300" r="324.803" /> 
<circle cx="45850" cy="54300" r="324.803" /> 
<circle cx="45850" cy="55300" r="324.803" /> 
<circle cx="45850" cy="56300" r="324.803" /> 
<circle cx="45850" cy="57300" r="324.803" /> 
<circle cx="45850" cy="58300" r="324.803" /> 
<circle cx="45850" cy="59300" r="324.803" /> 
<circle cx="45850" cy="60300" r="324.803" /> 
<circle cx="45850" cy="61300" r="324.803" /> 
<polyline style="fill-rule:evenodd;"
points="43694,52044
44205,52044
44205,52555
43694,52555
43694,52044
" /> 
<circle cx="43950" cy="53300" r="324.803" /> 
<circle cx="43950" cy="54300" r="324.803" /> 
<circle cx="43950" cy="55300" r="324.803" /> 
<circle cx="43950" cy="56300" r="324.803" /> 
<circle cx="43950" cy="57300" r="324.803" /> 
<circle cx="43950" cy="58300" r="324.803" /> 
<circle cx="43950" cy="59300" r="324.803" /> 
<circle cx="43950" cy="60300" r="324.803" /> 
<circle cx="43950" cy="61300" r="324.803" /> 
<polyline style="fill-rule:evenodd;"
points="45569,42019
46130,42019
46130,42580
45569,42580
45569,42019
" /> 
<circle cx="45850" cy="43300" r="324.803" /> 
<circle cx="45850" cy="44300" r="324.803" /> 
<circle cx="45850" cy="45300" r="324.803" /> 
<polyline style="fill-rule:evenodd;"
points="38869,43019
39430,43019
39430,43580
38869,43580
38869,43019
" /> 
<circle cx="39150" cy="44300" r="324.803" /> 
<circle cx="39150" cy="45300" r="324.803" /> 
<circle cx="39150" cy="46300" r="324.803" /> 
<polyline style="fill-rule:evenodd;"
points="38869,56019
39430,56019
39430,56580
38869,56580
38869,56019
" /> 
<circle cx="39150" cy="57300" r="324.803" /> 
<circle cx="39150" cy="58300" r="324.803" /> 
<circle cx="39150" cy="59300" r="324.803" /> 
<circle cx="39150" cy="60300" r="324.803" /> 
<circle cx="39150" cy="61300" r="324.803" /> 
<polyline style="fill-rule:evenodd;"
points="45569,46019
46130,46019
46130,46580
45569,46580
45569,46019
" /> 
<circle cx="45850" cy="47300" r="324.803" /> 
<circle cx="45850" cy="48300" r="324.803" /> 
<circle cx="45850" cy="49300" r="324.803" /> 
<circle cx="45850" cy="50300" r="324.803" /> 
<circle cx="45850" cy="51300" r="324.803" /> 
<circle cx="34850" cy="42900" r="780.315" /> 
<circle cx="34850" cy="60700" r="780.315" /> 
<circle cx="38000" cy="42300" r="324.803" /> 
<circle cx="38000" cy="43300" r="324.803" /> 
<circle cx="38000" cy="44300" r="324.803" /> 
<circle cx="38000" cy="45300" r="324.803" /> 
<circle cx="38000" cy="46300" r="324.803" /> 
<circle cx="38000" cy="47300" r="324.803" /> 
<circle cx="38000" cy="48300" r="324.803" /> 
<circle cx="38000" cy="49300" r="324.803" /> 
<circle cx="38000" cy="50300" r="324.803" /> 
<circle cx="38000" cy="51300" r="324.803" /> 
<circle cx="38000" cy="52300" r="324.803" /> 
<circle cx="38000" cy="53300" r="324.803" /> 
<circle cx="38000" cy="54300" r="324.803" /> 
<circle cx="38000" cy="55300" r="324.803" /> 
<circle cx="38000" cy="56300" r="324.803" /> 
<circle cx="38000" cy="57300" r="324.803" /> 
<circle cx="38000" cy="58300" r="324.803" /> 
<circle cx="38000" cy="59300" r="324.803" /> 
<circle cx="38000" cy="60300" r="324.803" /> 
<circle cx="38000" cy="61300" r="324.803" /> 
<circle cx="47000" cy="61300" r="324.803" /> 
<circle cx="47000" cy="60300" r="324.803" /> 
<circle cx="47000" cy="59300" r="324.803" /> 
<circle cx="47000" cy="58300" r="324.803" /> 
<circle cx="47000" cy="57300" r="324.803" /> 
<circle cx="47000" cy="56300" r="324.803" /> 
<circle cx="47000" cy="55300" r="324.803" /> 
<circle cx="47000" cy="54300" r="324.803" /> 
<circle cx="47000" cy="53300" r="324.803" /> 
<circle cx="47000" cy="52300" r="324.803" /> 
<circle cx="47000" cy="51300" r="324.803" /> 
<circle cx="47000" cy="50300" r="324.803" /> 
<circle cx="47000" cy="49300" r="324.803" /> 
<circle cx="47000" cy="48300" r="324.803" /> 
<circle cx="47000" cy="47300" r="324.803" /> 
<circle cx="47000" cy="46300" r="324.803" /> 
<circle cx="47000" cy="45300" r="324.803" /> 
<circle cx="47000" cy="44300" r="324.803" /> 
<circle cx="47000" cy="43300" r="324.803" /> 
<circle cx="47000" cy="42300" r="324.803" /> 
<polyline style="fill-rule:evenodd;"
points="35655,45955
35144,45955
35144,45444
35655,45444
35655,45955
" /> 
<circle cx="35400" cy="44700" r="324.803" /> 
</g>
<g style="fill:#000000; fill-opacity:1.0; 
stroke:#000000; stroke-width:157.48; stroke-opacity:1; 
stroke-linecap:round; stroke-linejoin:round;">
<path d="M47000 56300
L45850 56300
" />
<path d="M38000 57300
L39150 57300
" />
<path d="M38000 56300
L39150 56300
" />
<path d="M47000 52300
L45850 52300
" />
<path d="M47000 53300
L45850 53300
" />
<path d="M47000 54300
L45850 54300
" />
<path d="M47000 55300
L45850 55300
" />
<path d="M47000 57300
L45850 57300
" />
<path d="M47000 46300
L45850 46300
" />
<path d="M47000 47300
L45850 47300
" />
<path d="M47000 48300
L45850 48300
" />
<path d="M47000 58300
L45850 58300
" />
<path d="M47000 49300
L45850 49300
" />
<path d="M47000 50300
L45850 50300
" />
<path d="M47000 51300
L45850 51300
" />
<path d="M35000 54300
L35500 53800
" />
<path d="M35500 53800
L35500 52050
" />
<path d="M35500 52050
L35250 51800
" />
<path d="M35250 51800
L34600 51800
" />
<path d="M34600 51800
L34500 51700
" />
<path d="M34500 51700
L34500 49250
" />
<path d="M34500 49250
L35450 48300
" />
<path d="M35450 48300
L36900 48300
" />
<path d="M36900 48300
L38000 48300
" />
</g>
<g style="fill:#000000; fill-opacity:1.0; 
stroke:#000000; stroke-width:100; stroke-opacity:1; 
stroke-linecap:round; stroke-linejoin:round;">
<path d="M36900 48300
L36900 48300
" />
</g>
<g style="fill:#000000; fill-opacity:1.0; 
stroke:#000000; stroke-width:157.48; stroke-opacity:1; 
stroke-linecap:round; stroke-linejoin:round;">
<path d="M36700 46300
L38000 46300
" />
<path d="M34550 52300
L34100 51850
" />
<path d="M35000 52300
L34550 52300
" />
<path d="M34100 51850
L34100 48900
" />
<path d="M34100 48900
L36700 46300
" />
<path d="M35000 53300
L34450 53300
" />
<path d="M34450 53300
L33700 52550
" />
<path d="M33700 52550
L33700 48450
" />
<path d="M33700 48450
L36350 45800
" />
<path d="M36350 45800
L38250 45800
" />
<path d="M38250 45800
L38500 46050
" />
<path d="M38500 46050
L38500 46800
" />
<path d="M38500 46800
L38000 47300
" />
<path d="M38000 50300
L38550 50300
" />
<path d="M38550 50300
L40350 48500
" />
<path d="M40350 48500
L41550 48500
" />
<path d="M41550 48500
L43250 46800
" />
<path d="M43250 46800
L43850 46800
" />
<path d="M47000 59300
L45850 59300
" />
<path d="M43850 45300
L44300 45300
" />
<path d="M44700 45700
L44300 45300
" />
<path d="M42650 51300
L38000 51300
" />
<path d="M42650 51300
L44700 49250
" />
<path d="M44700 49250
L44700 45700
" />
<path d="M45850 45300
L45850 44300
" />
<path d="M45850 44300
L45850 43300
" />
<path d="M45850 43300
L45850 42300
" />
</g>
<g style="fill:#000000; fill-opacity:1.0; 
stroke:#000000; stroke-width:100; stroke-opacity:1; 
stroke-linecap:round; stroke-linejoin:round;">
<path d="M45850 42300
L47000 42300
" />
</g>
<g style="fill:#000000; fill-opacity:1.0; 
stroke:#000000; stroke-width:157.48; stroke-opacity:1; 
stroke-linecap:round; stroke-linejoin:round;">
<path d="M43850 46300
L43250 46300
" />
<path d="M41450 42300
L47000 42300
" />
<path d="M39950 43800
L41450 42300
" />
<path d="M39950 47750
L39950 43800
" />
<path d="M40250 48050
L39950 47750
" />
<path d="M41500 48050
L40250 48050
" />
<path d="M43250 46300
L41500 48050
" />
<path d="M43000 54600
L42400 55200
" />
<path d="M40300 46250
L40300 43950
" />
<path d="M41800 55800
L36500 55800
" />
<path d="M36000 55300
L36500 55800
" />
<path d="M41800 55800
L42400 55200
" />
<path d="M40300 43950
L41000 43250
" />
<path d="M41000 43250
L43100 43250
" />
<path d="M43100 43250
L45300 45450
" />
<path d="M45300 45450
L45300 49750
" />
<path d="M45300 49750
L43000 52050
" />
<path d="M43000 52050
L43000 54600
" />
<path d="M40300 46250
L40800 46750
" />
<path d="M40800 47550
L40800 46750
" />
<path d="M41250 46300
L41650 46300
" />
<path d="M40800 46750
L41250 46300
" />
<path d="M35400 45700
L35700 45700
" />
<path d="M35700 45700
L36800 44600
" />
<path d="M36800 44600
L36800 43800
" />
<path d="M36800 43800
L37300 43300
" />
<path d="M37300 43300
L38000 43300
" />
<path d="M35700 48800
L38500 48800
" />
<path d="M35000 49500
L35700 48800
" />
<path d="M35000 51300
L35000 49500
" />
<path d="M38500 48800
L39150 48150
" />
<path d="M39150 48150
L39150 46300
" />
<path d="M38000 43300
L39150 43300
" />
<path d="M39150 43300
L39150 44300
" />
<path d="M39150 44300
L39150 45300
" />
<path d="M39150 45300
L39150 46300
" />
<path d="M36450 49300
L38000 49300
" />
<path d="M36000 52300
L36000 52100
" />
<path d="M36000 52100
L35500 51600
" />
<path d="M35500 51600
L35500 50250
" />
<path d="M35500 50250
L36450 49300
" />
<path d="M47000 60300
L45850 60300
" />
<path d="M41650 45800
L41300 45800
" />
<path d="M41300 45800
L40800 45300
" />
<path d="M40800 45300
L40800 44550
" />
<path d="M40800 44550
L40800 43950
" />
<path d="M35500 54800
L35000 55300
" />
<path d="M42350 54800
L35500 54800
" />
<path d="M42700 54450
L42350 54800
" />
<path d="M42700 51800
L42700 54450
" />
<path d="M45000 49500
L42700 51800
" />
<path d="M45000 45600
L45000 49500
" />
<path d="M43000 43600
L45000 45600
" />
<path d="M41150 43600
L43000 43600
" />
<path d="M40800 43950
L41150 43600
" />
<path d="M36650 53100
L36450 53300
" />
<path d="M36450 53300
L36000 53300
" />
<path d="M38000 52300
L37450 52300
" />
<path d="M36650 53100
L37450 52300
" />
<path d="M47000 61300
L45850 61300
" />
<path d="M38000 61300
L39150 61300
" />
<path d="M38000 60300
L39150 60300
" />
<path d="M38000 59300
L39150 59300
" />
<path d="M38000 58300
L39150 58300
" />
</g>
<g style="fill:#000000; fill-opacity:1.0; 
stroke:#000000; stroke-width:39.3701; stroke-opacity:1; 
stroke-linecap:round; stroke-linejoin:round;">
<polyline style="fill-rule:evenodd;"
points="47320,62120
44549,62120
44549,61392
44549,60392
44549,59392
44549,58392
44549,57392
44549,56392
44549,55392
44549,54392
44549,53392
44538,53156
44475,53002
44475,52624
44475,51975
44437,51883
44366,51813
44274,51775
44175,51774
44062,51775
44000,51837
44000,52250
44412,52250
44475,52187
44475,51975
44475,52624
44475,52412
44412,52350
44000,52350
44000,52357
43900,52357
43900,52350
43487,52350
43425,52412
43424,52624
43462,52716
43533,52786
43621,52823
43602,52881
43950,53229
44297,52881
44278,52823
44366,52786
44437,52716
44475,52624
44475,53002
44468,52985
44368,52952
44020,53300
44368,53647
44468,53614
44549,53392
44549,54392
44538,54156
44468,53985
44368,53952
44297,54023
44297,53881
44270,53800
44297,53718
43950,53370
43879,53441
43879,53300
43531,52952
43431,52985
43350,53207
43361,53443
43431,53614
43531,53647
43879,53300
43879,53441
43602,53718
43629,53800
43602,53881
43950,54229
44297,53881
44297,54023
44020,54300
44368,54647
44468,54614
44549,54392
44549,55392
44538,55156
44468,54985
44368,54952
44297,55023
44297,54881
44270,54800
44297,54718
43950,54370
43879,54441
43879,54300
43531,53952
43431,53985
43350,54207
43361,54443
43431,54614
43531,54647
43879,54300
43879,54441
43602,54718
43629,54800
43602,54881
43950,55229
44297,54881
44297,55023
44020,55300
44368,55647
44468,55614
44549,55392
44549,56392
44538,56156
44468,55985
44368,55952
44297,56023
44297,55881
44270,55800
44297,55718
43950,55370
43879,55441
43879,55300
43531,54952
43431,54985
43350,55207
43361,55443
43431,55614
43531,55647
43879,55300
43879,55441
43602,55718
43629,55800
43602,55881
43950,56229
44297,55881
44297,56023
44020,56300
44368,56647
44468,56614
44549,56392
44549,57392
44538,57156
44468,56985
44368,56952
44297,57023
44297,56881
44270,56800
44297,56718
43950,56370
43879,56441
43879,56300
43531,55952
43431,55985
43350,56207
43361,56443
43431,56614
43531,56647
43879,56300
43879,56441
43602,56718
43629,56800
43602,56881
43950,57229
44297,56881
44297,57023
44020,57300
44368,57647
44468,57614
44549,57392
44549,58392
44538,58156
44468,57985
44368,57952
44297,58023
44297,57881
44270,57800
44297,57718
43950,57370
43879,57441
43879,57300
43531,56952
43431,56985
43350,57207
43361,57443
43431,57614
43531,57647
43879,57300
43879,57441
43602,57718
43629,57800
43602,57881
43950,58229
44297,57881
44297,58023
44020,58300
44368,58647
44468,58614
44549,58392
44549,59392
44538,59156
44468,58985
44368,58952
44297,59023
44297,58881
44270,58800
44297,58718
43950,58370
43879,58441
43879,58300
43531,57952
43431,57985
43350,58207
43361,58443
43431,58614
43531,58647
43879,58300
43879,58441
43602,58718
43629,58800
43602,58881
43950,59229
44297,58881
44297,59023
44020,59300
44368,59647
44468,59614
44549,59392
44549,60392
44538,60156
44468,59985
44368,59952
44297,60023
44297,59881
44270,59800
44297,59718
43950,59370
43879,59441
43879,59300
43531,58952
43431,58985
43350,59207
43361,59443
43431,59614
43531,59647
43879,59300
43879,59441
43602,59718
43629,59800
43602,59881
43950,60229
44297,59881
44297,60023
44020,60300
44368,60647
44468,60614
44549,60392
44549,61392
44538,61156
44468,60985
44368,60952
44297,61023
44297,60881
44270,60800
44297,60718
43950,60370
43879,60441
43879,60300
43531,59952
43431,59985
43350,60207
43361,60443
43431,60614
43531,60647
43879,60300
43879,60441
43602,60718
43629,60800
43602,60881
43950,61229
44297,60881
44297,61023
44020,61300
44368,61647
44468,61614
44549,61392
44549,62120
44297,62120
44297,61718
43950,61370
43879,61441
43879,61300
43531,60952
43431,60985
43350,61207
43361,61443
43431,61614
43531,61647
43879,61300
43879,61441
43602,61718
43635,61818
43857,61899
44093,61888
44264,61818
44297,61718
44297,62120
39644,62120
39644,61202
39644,60202
39644,59202
39644,58202
39644,57202
39569,57020
39430,56881
39248,56805
39052,56805
38870,56880
38731,57019
38709,57071
38440,57071
38419,57020
38280,56881
38098,56805
37902,56805
37720,56880
37581,57019
37505,57201
37505,57397
37580,57579
37719,57718
37901,57794
38097,57794
38279,57719
38418,57580
38440,57528
38709,57528
38730,57579
38869,57718
39051,57794
39247,57794
39429,57719
39568,57580
39644,57398
39644,57202
39644,58202
39569,58020
39430,57881
39248,57805
39052,57805
38870,57880
38731,58019
38709,58071
38440,58071
38419,58020
38280,57881
38098,57805
37902,57805
37720,57880
37581,58019
37505,58201
37505,58397
37580,58579
37719,58718
37901,58794
38097,58794
38279,58719
38418,58580
38440,58528
38709,58528
38730,58579
38869,58718
39051,58794
39247,58794
39429,58719
39568,58580
39644,58398
39644,58202
39644,59202
39569,59020
39430,58881
39248,58805
39052,58805
38870,58880
38731,59019
38709,59071
38440,59071
38419,59020
38280,58881
38098,58805
37902,58805
37720,58880
37581,59019
37505,59201
37505,59397
37580,59579
37719,59718
37901,59794
38097,59794
38279,59719
38418,59580
38440,59528
38709,59528
38730,59579
38869,59718
39051,59794
39247,59794
39429,59719
39568,59580
39644,59398
39644,59202
39644,60202
39569,60020
39430,59881
39248,59805
39052,59805
38870,59880
38731,60019
38709,60071
38440,60071
38419,60020
38280,59881
38098,59805
37902,59805
37720,59880
37581,60019
37505,60201
37505,60397
37580,60579
37719,60718
37901,60794
38097,60794
38279,60719
38418,60580
38440,60528
38709,60528
38730,60579
38869,60718
39051,60794
39247,60794
39429,60719
39568,60580
39644,60398
39644,60202
39644,61202
39569,61020
39430,60881
39248,60805
39052,60805
38870,60880
38731,61019
38709,61071
38440,61071
38419,61020
38280,60881
38098,60805
37902,60805
37720,60880
37581,61019
37505,61201
37505,61397
37580,61579
37719,61718
37901,61794
38097,61794
38279,61719
38418,61580
38440,61528
38709,61528
38730,61579
38869,61718
39051,61794
39247,61794
39429,61719
39568,61580
39644,61398
39644,61202
39644,62120
33500,62120
33429,62120
33429,41479
33500,41479
47320,41479
47320,41921
47280,41881
47098,41805
46902,41805
46720,41880
46581,42019
46559,42071
46300,42071
46300,41970
46277,41915
46235,41872
46179,41850
46120,41849
45520,41849
45465,41872
45422,41914
45400,41970
45399,42029
45399,42071
41450,42071
41362,42088
41337,42105
41288,42138
39788,43638
39738,43712
39721,43800
39721,47750
39738,47837
39788,47911
40088,48211
40088,48211
40137,48244
40162,48261
40162,48261
40249,48278
40250,48278
40312,48278
40262,48288
40188,48338
38455,50071
38440,50071
38419,50020
38280,49881
38098,49805
37902,49805
37720,49880
37581,50019
37505,50201
37505,50397
37580,50579
37719,50718
37901,50794
38097,50794
38279,50719
38418,50580
38440,50528
38550,50528
38637,50511
38711,50461
40444,48728
41550,48728
41637,48711
41711,48661
43344,47028
43491,47028
43514,47052
43570,47074
43629,47075
44129,47075
44184,47052
44227,47010
44249,46954
44250,46895
44250,46645
44227,46590
44187,46549
44227,46510
44249,46454
44250,46395
44250,46145
44245,46133
44312,46066
44350,45974
44350,45912
44287,45850
43900,45850
43900,45857
43800,45857
43800,45850
43412,45850
43350,45912
43349,45974
43387,46066
43392,46071
43250,46071
43162,46088
43088,46138
41405,47821
41222,47821
41294,47648
41294,47452
41219,47270
41080,47131
41028,47109
41028,46844
41265,46608
41250,46645
41249,46704
41249,46954
41272,47009
41314,47052
41370,47074
41429,47075
41929,47075
41984,47052
42027,47010
42049,46954
42050,46895
42050,46645
42027,46590
41987,46549
42027,46510
42049,46454
42050,46395
42050,46145
42027,46090
41987,46049
42027,46010
42049,45954
42050,45895
42050,45645
42045,45633
42112,45566
42150,45474
42150,45125
42112,45033
42041,44963
41949,44925
41850,44924
41762,44925
41700,44987
41700,45250
42087,45250
42150,45187
42150,45125
42150,45474
42150,45412
42087,45350
41700,45350
41700,45357
41600,45357
41600,45350
41600,45250
41600,44987
41537,44925
41449,44924
41350,44925
41258,44963
41187,45033
41149,45125
41150,45187
41212,45250
41600,45250
41600,45350
41212,45350
41192,45369
41028,45205
41028,44990
41079,44969
41218,44830
41294,44648
41294,44452
41219,44270
41080,44131
41028,44109
41028,44044
41244,43828
42905,43828
44101,45025
44070,45024
43570,45024
43515,45047
43472,45089
43450,45145
43449,45204
43449,45454
43454,45466
43387,45533
43349,45625
43350,45687
43412,45750
43800,45750
43800,45742
43900,45742
43900,45750
44287,45750
44350,45687
44350,45673
44471,45794
44471,49155
42555,51071
38440,51071
38419,51020
38280,50881
38098,50805
37902,50805
37720,50880
37581,51019
37505,51201
37505,51397
37580,51579
37719,51718
37901,51794
38097,51794
38279,51719
38418,51580
38440,51528
42647,51528
42538,51638
42488,51712
42471,51800
42471,54355
42255,54571
38422,54571
38494,54398
38494,54202
38494,53202
38419,53020
38280,52881
38098,52805
37902,52805
37720,52880
37581,53019
37505,53201
37505,53397
37580,53579
37719,53718
37901,53794
38097,53794
38279,53719
38418,53580
38494,53398
38494,53202
38494,54202
38419,54020
38280,53881
38098,53805
37902,53805
37720,53880
37581,54019
37505,54201
37505,54397
37577,54571
36533,54571
36599,54392
36588,54156
36518,53985
36418,53952
36070,54300
36076,54305
36005,54376
36000,54370
35994,54376
35923,54305
35929,54300
35923,54294
35994,54223
36000,54229
36347,53881
36314,53781
36215,53745
36279,53719
36418,53580
36440,53528
36450,53528
36537,53511
36611,53461
36811,53261
37544,52528
37559,52528
37580,52579
37719,52718
37901,52794
38097,52794
38279,52719
38418,52580
38494,52398
38494,52202
38419,52020
38280,51881
38098,51805
37902,51805
37720,51880
37581,52019
37559,52071
37450,52071
37362,52088
37288,52138
37288,52138
37288,52138
36599,52827
36599,51392
36588,51156
36518,50985
36418,50952
36070,51300
36418,51647
36518,51614
36599,51392
36599,52827
36488,52938
36412,53013
36280,52881
36098,52805
35902,52805
35728,52877
35728,52722
35901,52794
36097,52794
36279,52719
36418,52580
36494,52398
36494,52202
36419,52020
36280,51881
36221,51856
36314,51818
36347,51718
36000,51370
35994,51376
35923,51305
35929,51300
35923,51294
35994,51223
36000,51229
36347,50881
36314,50781
36092,50700
35856,50711
35728,50763
35728,50344
36544,49528
37559,49528
37580,49579
37719,49718
37901,49794
38097,49794
38279,49719
38418,49580
38494,49398
38494,49202
38422,49028
38500,49028
38587,49011
38661,48961
39311,48311
39361,48237
39361,48237
39378,48150
39378,46740
39429,46719
39568,46580
39644,46398
39644,46202
39569,46020
39430,45881
39378,45859
39378,45740
39429,45719
39568,45580
39644,45398
39644,45202
39569,45020
39430,44881
39378,44859
39378,44740
39429,44719
39568,44580
39644,44398
39644,44202
39569,44020
39430,43881
39378,43859
39378,43750
39479,43750
39534,43727
39577,43685
39599,43629
39600,43570
39600,42970
39577,42915
39535,42872
39479,42850
39420,42849
38820,42849
38765,42872
38722,42914
38700,42970
38699,43029
38699,43071
38599,43071
38599,42392
38588,42156
38518,41985
38418,41952
38347,42023
38347,41881
38314,41781
38092,41700
37856,41711
37685,41781
37652,41881
38000,42229
38347,41881
38347,42023
38070,42300
38418,42647
38518,42614
38599,42392
38599,43071
38440,43071
38419,43020
38280,42881
38221,42856
38314,42818
38347,42718
38000,42370
37929,42441
37929,42300
37581,41952
37481,41985
37400,42207
37411,42443
37481,42614
37581,42647
37929,42300
37929,42441
37652,42718
37685,42818
37784,42854
37720,42880
37581,43019
37559,43071
37300,43071
37212,43088
37138,43138
36638,43638
36588,43712
36571,43800
36571,44505
35999,45077
35999,44792
35988,44556
35918,44385
35818,44352
35800,44370
35800,42711
35655,42362
35388,42095
35039,41950
34661,41949
34312,42094
34045,42361
33900,42710
33899,43088
34044,43437
34311,43704
34660,43849
35038,43850
35387,43705
35654,43438
35799,43089
35800,42711
35800,44370
35747,44423
35747,44281
35714,44181
35492,44100
35256,44111
35085,44181
35052,44281
35400,44629
35747,44281
35747,44423
35470,44700
35818,45047
35918,45014
35999,44792
35999,45077
35769,45307
35760,45297
35704,45275
35645,45274
35577,45274
35714,45218
35747,45118
35400,44770
35329,44841
35329,44700
34981,44352
34881,44385
34800,44607
34811,44843
34881,45014
34981,45047
35329,44700
35329,44841
35052,45118
35085,45218
35241,45274
35095,45274
35040,45297
34997,45339
34975,45395
34974,45454
34974,46004
34997,46059
35039,46102
35095,46124
35154,46125
35701,46125
33538,48288
33488,48362
33471,48450
33471,52550
33488,52637
33538,52711
34288,53461
34288,53461
34362,53511
34362,53511
34449,53528
34450,53528
34559,53528
34580,53579
34719,53718
34901,53794
35097,53794
35241,53735
35149,53826
35098,53805
34902,53805
34720,53880
34581,54019
34505,54201
34505,54397
34580,54579
34719,54718
34901,54794
35097,54794
35241,54735
35149,54826
35098,54805
34902,54805
34720,54880
34581,55019
34505,55201
34505,55397
34580,55579
34719,55718
34901,55794
35097,55794
35279,55719
35418,55580
35494,55398
35494,55202
35473,55150
35564,55058
35505,55201
35505,55397
35580,55579
35719,55718
35901,55794
36097,55794
36149,55773
36276,55900
34200,55900
34200,59800
34540,59800
34312,59894
34045,60161
33900,60510
33899,60888
34044,61237
34311,61504
34660,61649
35038,61650
35387,61505
35654,61238
35799,60889
35800,60511
35655,60162
35388,59895
35159,59800
36800,59800
36800,56028
37577,56028
37505,56201
37505,56397
37580,56579
37719,56718
37901,56794
38097,56794
38279,56719
38418,56580
38440,56528
38699,56528
38699,56629
38722,56684
38764,56727
38820,56749
38879,56750
39479,56750
39534,56727
39577,56685
39599,56629
39600,56570
39600,56028
41800,56028
41887,56011
41961,55961
42561,55361
43161,54761
43211,54687
43228,54600
43228,52144
43443,51929
43424,51975
43425,52187
43487,52250
43900,52250
43900,51837
43837,51775
43724,51774
43625,51775
43579,51793
45461,49911
45511,49837
45511,49837
45514,49823
45528,49750
45528,49750
45528,49678
45569,49718
45751,49794
45947,49794
46129,49719
46268,49580
46290,49528
46559,49528
46580,49579
46719,49718
46901,49794
47097,49794
47279,49719
47320,49678
47320,49921
47280,49881
47098,49805
46902,49805
46720,49880
46581,50019
46559,50071
46290,50071
46269,50020
46130,49881
45948,49805
45752,49805
45570,49880
45431,50019
45355,50201
45355,50397
45430,50579
45569,50718
45751,50794
45947,50794
46129,50719
46268,50580
46290,50528
46559,50528
46580,50579
46719,50718
46901,50794
47097,50794
47279,50719
47320,50678
47320,50921
47280,50881
47098,50805
46902,50805
46720,50880
46581,51019
46559,51071
46290,51071
46269,51020
46130,50881
45948,50805
45752,50805
45570,50880
45431,51019
45355,51201
45355,51397
45430,51579
45569,51718
45751,51794
45947,51794
46129,51719
46268,51580
46290,51528
46559,51528
46580,51579
46719,51718
46901,51794
47097,51794
47279,51719
47320,51678
47320,51921
47280,51881
47098,51805
46902,51805
46720,51880
46581,52019
46559,52071
46275,52071
46275,51995
46252,51940
46210,51897
46154,51875
46095,51874
45545,51874
45490,51897
45447,51939
45425,51995
45424,52054
45424,52604
45447,52659
45489,52702
45545,52724
45604,52725
46154,52725
46209,52702
46252,52660
46274,52604
46275,52545
46275,52528
46559,52528
46580,52579
46719,52718
46901,52794
47097,52794
47279,52719
47320,52678
47320,52921
47280,52881
47098,52805
46902,52805
46720,52880
46581,53019
46559,53071
46290,53071
46269,53020
46130,52881
45948,52805
45752,52805
45570,52880
45431,53019
45355,53201
45355,53397
45430,53579
45569,53718
45751,53794
45947,53794
46129,53719
46268,53580
46290,53528
46559,53528
46580,53579
46719,53718
46901,53794
47097,53794
47279,53719
47320,53678
47320,53921
47280,53881
47098,53805
46902,53805
46720,53880
46581,54019
46559,54071
46290,54071
46269,54020
46130,53881
45948,53805
45752,53805
45570,53880
45431,54019
45355,54201
45355,54397
45430,54579
45569,54718
45751,54794
45947,54794
46129,54719
46268,54580
46290,54528
46559,54528
46580,54579
46719,54718
46901,54794
47097,54794
47279,54719
47320,54678
47320,54921
47280,54881
47098,54805
46902,54805
46720,54880
46581,55019
46559,55071
46290,55071
46269,55020
46130,54881
45948,54805
45752,54805
45570,54880
45431,55019
45355,55201
45355,55397
45430,55579
45569,55718
45751,55794
45947,55794
46129,55719
46268,55580
46290,55528
46559,55528
46580,55579
46719,55718
46901,55794
47097,55794
47279,55719
47320,55678
47320,55921
47280,55881
47098,55805
46902,55805
46720,55880
46581,56019
46559,56071
46290,56071
46269,56020
46130,55881
45948,55805
45752,55805
45570,55880
45431,56019
45355,56201
45355,56397
45430,56579
45569,56718
45751,56794
45947,56794
46129,56719
46268,56580
46290,56528
46559,56528
46580,56579
46719,56718
46901,56794
47097,56794
47279,56719
47320,56678
47320,56921
47280,56881
47098,56805
46902,56805
46720,56880
46581,57019
46559,57071
46290,57071
46269,57020
46130,56881
45948,56805
45752,56805
45570,56880
45431,57019
45355,57201
45355,57397
45430,57579
45569,57718
45751,57794
45947,57794
46129,57719
46268,57580
46290,57528
46559,57528
46580,57579
46719,57718
46901,57794
47097,57794
47279,57719
47320,57678
47320,57921
47280,57881
47098,57805
46902,57805
46720,57880
46581,58019
46559,58071
46290,58071
46269,58020
46130,57881
45948,57805
45752,57805
45570,57880
45431,58019
45355,58201
45355,58397
45430,58579
45569,58718
45751,58794
45947,58794
46129,58719
46268,58580
46290,58528
46559,58528
46580,58579
46719,58718
46901,58794
47097,58794
47279,58719
47320,58678
47320,58921
47280,58881
47098,58805
46902,58805
46720,58880
46581,59019
46559,59071
46290,59071
46269,59020
46130,58881
45948,58805
45752,58805
45570,58880
45431,59019
45355,59201
45355,59397
45430,59579
45569,59718
45751,59794
45947,59794
46129,59719
46268,59580
46290,59528
46559,59528
46580,59579
46719,59718
46901,59794
47097,59794
47279,59719
47320,59678
47320,59921
47280,59881
47098,59805
46902,59805
46720,59880
46581,60019
46559,60071
46290,60071
46269,60020
46130,59881
45948,59805
45752,59805
45570,59880
45431,60019
45355,60201
45355,60397
45430,60579
45569,60718
45751,60794
45947,60794
46129,60719
46268,60580
46290,60528
46559,60528
46580,60579
46719,60718
46901,60794
47097,60794
47279,60719
47320,60678
47320,60921
47280,60881
47098,60805
46902,60805
46720,60880
46581,61019
46559,61071
46290,61071
46269,61020
46130,60881
45948,60805
45752,60805
45570,60880
45431,61019
45355,61201
45355,61397
45430,61579
45569,61718
45751,61794
45947,61794
46129,61719
46268,61580
46290,61528
46559,61528
46580,61579
46719,61718
46901,61794
47097,61794
47279,61719
47320,61678
47320,62120
" /> 
</g>
<g style="fill:#000000; fill-opacity:0.0; 
stroke:#000000; stroke-width:100; stroke-opacity:1; 
stroke-linecap:round; stroke-linejoin:round;">
<polyline fill="none;"
points="47320,62120
44549,62120
44549,61392
44549,60392
44549,59392
44549,58392
44549,57392
44549,56392
44549,55392
44549,54392
44549,53392
44538,53156
44475,53002
44475,52624
44475,51975
44437,51883
44366,51813
44274,51775
44175,51774
44062,51775
44000,51837
44000,52250
44412,52250
44475,52187
44475,51975
44475,52624
44475,52412
44412,52350
44000,52350
44000,52357
43900,52357
43900,52350
43487,52350
43425,52412
43424,52624
43462,52716
43533,52786
43621,52823
43602,52881
43950,53229
44297,52881
44278,52823
44366,52786
44437,52716
44475,52624
44475,53002
44468,52985
44368,52952
44020,53300
44368,53647
44468,53614
44549,53392
44549,54392
44538,54156
44468,53985
44368,53952
44297,54023
44297,53881
44270,53800
44297,53718
43950,53370
43879,53441
43879,53300
43531,52952
43431,52985
43350,53207
43361,53443
43431,53614
43531,53647
43879,53300
43879,53441
43602,53718
43629,53800
43602,53881
43950,54229
44297,53881
44297,54023
44020,54300
44368,54647
44468,54614
44549,54392
44549,55392
44538,55156
44468,54985
44368,54952
44297,55023
44297,54881
44270,54800
44297,54718
43950,54370
43879,54441
43879,54300
43531,53952
43431,53985
43350,54207
43361,54443
43431,54614
43531,54647
43879,54300
43879,54441
43602,54718
43629,54800
43602,54881
43950,55229
44297,54881
44297,55023
44020,55300
44368,55647
44468,55614
44549,55392
44549,56392
44538,56156
44468,55985
44368,55952
44297,56023
44297,55881
44270,55800
44297,55718
43950,55370
43879,55441
43879,55300
43531,54952
43431,54985
43350,55207
43361,55443
43431,55614
43531,55647
43879,55300
43879,55441
43602,55718
43629,55800
43602,55881
43950,56229
44297,55881
44297,56023
44020,56300
44368,56647
44468,56614
44549,56392
44549,57392
44538,57156
44468,56985
44368,56952
44297,57023
44297,56881
44270,56800
44297,56718
43950,56370
43879,56441
43879,56300
43531,55952
43431,55985
43350,56207
43361,56443
43431,56614
43531,56647
43879,56300
43879,56441
43602,56718
43629,56800
43602,56881
43950,57229
44297,56881
44297,57023
44020,57300
44368,57647
44468,57614
44549,57392
44549,58392
44538,58156
44468,57985
44368,57952
44297,58023
44297,57881
44270,57800
44297,57718
43950,57370
43879,57441
43879,57300
43531,56952
43431,56985
43350,57207
43361,57443
43431,57614
43531,57647
43879,57300
43879,57441
43602,57718
43629,57800
43602,57881
43950,58229
44297,57881
44297,58023
44020,58300
44368,58647
44468,58614
44549,58392
44549,59392
44538,59156
44468,58985
44368,58952
44297,59023
44297,58881
44270,58800
44297,58718
43950,58370
43879,58441
43879,58300
43531,57952
43431,57985
43350,58207
43361,58443
43431,58614
43531,58647
43879,58300
43879,58441
43602,58718
43629,58800
43602,58881
43950,59229
44297,58881
44297,59023
44020,59300
44368,59647
44468,59614
44549,59392
44549,60392
44538,60156
44468,59985
44368,59952
44297,60023
44297,59881
44270,59800
44297,59718
43950,59370
43879,59441
43879,59300
43531,58952
43431,58985
43350,59207
43361,59443
43431,59614
43531,59647
43879,59300
43879,59441
43602,59718
43629,59800
43602,59881
43950,60229
44297,59881
44297,60023
44020,60300
44368,60647
44468,60614
44549,60392
44549,61392
44538,61156
44468,60985
44368,60952
44297,61023
44297,60881
44270,60800
44297,60718
43950,60370
43879,60441
43879,60300
43531,59952
43431,59985
43350,60207
43361,60443
43431,60614
43531,60647
43879,60300
43879,60441
43602,60718
43629,60800
43602,60881
43950,61229
44297,60881
44297,61023
44020,61300
44368,61647
44468,61614
44549,61392
44549,62120
44297,62120
44297,61718
43950,61370
43879,61441
43879,61300
43531,60952
43431,60985
43350,61207
43361,61443
43431,61614
43531,61647
43879,61300
43879,61441
43602,61718
43635,61818
43857,61899
44093,61888
44264,61818
44297,61718
44297,62120
39644,62120
39644,61202
39644,60202
39644,59202
39644,58202
39644,57202
39569,57020
39430,56881
39248,56805
39052,56805
38870,56880
38731,57019
38709,57071
38440,57071
38419,57020
38280,56881
38098,56805
37902,56805
37720,56880
37581,57019
37505,57201
37505,57397
37580,57579
37719,57718
37901,57794
38097,57794
38279,57719
38418,57580
38440,57528
38709,57528
38730,57579
38869,57718
39051,57794
39247,57794
39429,57719
39568,57580
39644,57398
39644,57202
39644,58202
39569,58020
39430,57881
39248,57805
39052,57805
38870,57880
38731,58019
38709,58071
38440,58071
38419,58020
38280,57881
38098,57805
37902,57805
37720,57880
37581,58019
37505,58201
37505,58397
37580,58579
37719,58718
37901,58794
38097,58794
38279,58719
38418,58580
38440,58528
38709,58528
38730,58579
38869,58718
39051,58794
39247,58794
39429,58719
39568,58580
39644,58398
39644,58202
39644,59202
39569,59020
39430,58881
39248,58805
39052,58805
38870,58880
38731,59019
38709,59071
38440,59071
38419,59020
38280,58881
38098,58805
37902,58805
37720,58880
37581,59019
37505,59201
37505,59397
37580,59579
37719,59718
37901,59794
38097,59794
38279,59719
38418,59580
38440,59528
38709,59528
38730,59579
38869,59718
39051,59794
39247,59794
39429,59719
39568,59580
39644,59398
39644,59202
39644,60202
39569,60020
39430,59881
39248,59805
39052,59805
38870,59880
38731,60019
38709,60071
38440,60071
38419,60020
38280,59881
38098,59805
37902,59805
37720,59880
37581,60019
37505,60201
37505,60397
37580,60579
37719,60718
37901,60794
38097,60794
38279,60719
38418,60580
38440,60528
38709,60528
38730,60579
38869,60718
39051,60794
39247,60794
39429,60719
39568,60580
39644,60398
39644,60202
39644,61202
39569,61020
39430,60881
39248,60805
39052,60805
38870,60880
38731,61019
38709,61071
38440,61071
38419,61020
38280,60881
38098,60805
37902,60805
37720,60880
37581,61019
37505,61201
37505,61397
37580,61579
37719,61718
37901,61794
38097,61794
38279,61719
38418,61580
38440,61528
38709,61528
38730,61579
38869,61718
39051,61794
39247,61794
39429,61719
39568,61580
39644,61398
39644,61202
39644,62120
33500,62120
33429,62120
33429,41479
33500,41479
47320,41479
47320,41921
47280,41881
47098,41805
46902,41805
46720,41880
46581,42019
46559,42071
46300,42071
46300,41970
46277,41915
46235,41872
46179,41850
46120,41849
45520,41849
45465,41872
45422,41914
45400,41970
45399,42029
45399,42071
41450,42071
41362,42088
41337,42105
41288,42138
39788,43638
39738,43712
39721,43800
39721,47750
39738,47837
39788,47911
40088,48211
40088,48211
40137,48244
40162,48261
40162,48261
40249,48278
40250,48278
40312,48278
40262,48288
40188,48338
38455,50071
38440,50071
38419,50020
38280,49881
38098,49805
37902,49805
37720,49880
37581,50019
37505,50201
37505,50397
37580,50579
37719,50718
37901,50794
38097,50794
38279,50719
38418,50580
38440,50528
38550,50528
38637,50511
38711,50461
40444,48728
41550,48728
41637,48711
41711,48661
43344,47028
43491,47028
43514,47052
43570,47074
43629,47075
44129,47075
44184,47052
44227,47010
44249,46954
44250,46895
44250,46645
44227,46590
44187,46549
44227,46510
44249,46454
44250,46395
44250,46145
44245,46133
44312,46066
44350,45974
44350,45912
44287,45850
43900,45850
43900,45857
43800,45857
43800,45850
43412,45850
43350,45912
43349,45974
43387,46066
43392,46071
43250,46071
43162,46088
43088,46138
41405,47821
41222,47821
41294,47648
41294,47452
41219,47270
41080,47131
41028,47109
41028,46844
41265,46608
41250,46645
41249,46704
41249,46954
41272,47009
41314,47052
41370,47074
41429,47075
41929,47075
41984,47052
42027,47010
42049,46954
42050,46895
42050,46645
42027,46590
41987,46549
42027,46510
42049,46454
42050,46395
42050,46145
42027,46090
41987,46049
42027,46010
42049,45954
42050,45895
42050,45645
42045,45633
42112,45566
42150,45474
42150,45125
42112,45033
42041,44963
41949,44925
41850,44924
41762,44925
41700,44987
41700,45250
42087,45250
42150,45187
42150,45125
42150,45474
42150,45412
42087,45350
41700,45350
41700,45357
41600,45357
41600,45350
41600,45250
41600,44987
41537,44925
41449,44924
41350,44925
41258,44963
41187,45033
41149,45125
41150,45187
41212,45250
41600,45250
41600,45350
41212,45350
41192,45369
41028,45205
41028,44990
41079,44969
41218,44830
41294,44648
41294,44452
41219,44270
41080,44131
41028,44109
41028,44044
41244,43828
42905,43828
44101,45025
44070,45024
43570,45024
43515,45047
43472,45089
43450,45145
43449,45204
43449,45454
43454,45466
43387,45533
43349,45625
43350,45687
43412,45750
43800,45750
43800,45742
43900,45742
43900,45750
44287,45750
44350,45687
44350,45673
44471,45794
44471,49155
42555,51071
38440,51071
38419,51020
38280,50881
38098,50805
37902,50805
37720,50880
37581,51019
37505,51201
37505,51397
37580,51579
37719,51718
37901,51794
38097,51794
38279,51719
38418,51580
38440,51528
42647,51528
42538,51638
42488,51712
42471,51800
42471,54355
42255,54571
38422,54571
38494,54398
38494,54202
38494,53202
38419,53020
38280,52881
38098,52805
37902,52805
37720,52880
37581,53019
37505,53201
37505,53397
37580,53579
37719,53718
37901,53794
38097,53794
38279,53719
38418,53580
38494,53398
38494,53202
38494,54202
38419,54020
38280,53881
38098,53805
37902,53805
37720,53880
37581,54019
37505,54201
37505,54397
37577,54571
36533,54571
36599,54392
36588,54156
36518,53985
36418,53952
36070,54300
36076,54305
36005,54376
36000,54370
35994,54376
35923,54305
35929,54300
35923,54294
35994,54223
36000,54229
36347,53881
36314,53781
36215,53745
36279,53719
36418,53580
36440,53528
36450,53528
36537,53511
36611,53461
36811,53261
37544,52528
37559,52528
37580,52579
37719,52718
37901,52794
38097,52794
38279,52719
38418,52580
38494,52398
38494,52202
38419,52020
38280,51881
38098,51805
37902,51805
37720,51880
37581,52019
37559,52071
37450,52071
37362,52088
37288,52138
37288,52138
37288,52138
36599,52827
36599,51392
36588,51156
36518,50985
36418,50952
36070,51300
36418,51647
36518,51614
36599,51392
36599,52827
36488,52938
36412,53013
36280,52881
36098,52805
35902,52805
35728,52877
35728,52722
35901,52794
36097,52794
36279,52719
36418,52580
36494,52398
36494,52202
36419,52020
36280,51881
36221,51856
36314,51818
36347,51718
36000,51370
35994,51376
35923,51305
35929,51300
35923,51294
35994,51223
36000,51229
36347,50881
36314,50781
36092,50700
35856,50711
35728,50763
35728,50344
36544,49528
37559,49528
37580,49579
37719,49718
37901,49794
38097,49794
38279,49719
38418,49580
38494,49398
38494,49202
38422,49028
38500,49028
38587,49011
38661,48961
39311,48311
39361,48237
39361,48237
39378,48150
39378,46740
39429,46719
39568,46580
39644,46398
39644,46202
39569,46020
39430,45881
39378,45859
39378,45740
39429,45719
39568,45580
39644,45398
39644,45202
39569,45020
39430,44881
39378,44859
39378,44740
39429,44719
39568,44580
39644,44398
39644,44202
39569,44020
39430,43881
39378,43859
39378,43750
39479,43750
39534,43727
39577,43685
39599,43629
39600,43570
39600,42970
39577,42915
39535,42872
39479,42850
39420,42849
38820,42849
38765,42872
38722,42914
38700,42970
38699,43029
38699,43071
38599,43071
38599,42392
38588,42156
38518,41985
38418,41952
38347,42023
38347,41881
38314,41781
38092,41700
37856,41711
37685,41781
37652,41881
38000,42229
38347,41881
38347,42023
38070,42300
38418,42647
38518,42614
38599,42392
38599,43071
38440,43071
38419,43020
38280,42881
38221,42856
38314,42818
38347,42718
38000,42370
37929,42441
37929,42300
37581,41952
37481,41985
37400,42207
37411,42443
37481,42614
37581,42647
37929,42300
37929,42441
37652,42718
37685,42818
37784,42854
37720,42880
37581,43019
37559,43071
37300,43071
37212,43088
37138,43138
36638,43638
36588,43712
36571,43800
36571,44505
35999,45077
35999,44792
35988,44556
35918,44385
35818,44352
35800,44370
35800,42711
35655,42362
35388,42095
35039,41950
34661,41949
34312,42094
34045,42361
33900,42710
33899,43088
34044,43437
34311,43704
34660,43849
35038,43850
35387,43705
35654,43438
35799,43089
35800,42711
35800,44370
35747,44423
35747,44281
35714,44181
35492,44100
35256,44111
35085,44181
35052,44281
35400,44629
35747,44281
35747,44423
35470,44700
35818,45047
35918,45014
35999,44792
35999,45077
35769,45307
35760,45297
35704,45275
35645,45274
35577,45274
35714,45218
35747,45118
35400,44770
35329,44841
35329,44700
34981,44352
34881,44385
34800,44607
34811,44843
34881,45014
34981,45047
35329,44700
35329,44841
35052,45118
35085,45218
35241,45274
35095,45274
35040,45297
34997,45339
34975,45395
34974,45454
34974,46004
34997,46059
35039,46102
35095,46124
35154,46125
35701,46125
33538,48288
33488,48362
33471,48450
33471,52550
33488,52637
33538,52711
34288,53461
34288,53461
34362,53511
34362,53511
34449,53528
34450,53528
34559,53528
34580,53579
34719,53718
34901,53794
35097,53794
35241,53735
35149,53826
35098,53805
34902,53805
34720,53880
34581,54019
34505,54201
34505,54397
34580,54579
34719,54718
34901,54794
35097,54794
35241,54735
35149,54826
35098,54805
34902,54805
34720,54880
34581,55019
34505,55201
34505,55397
34580,55579
34719,55718
34901,55794
35097,55794
35279,55719
35418,55580
35494,55398
35494,55202
35473,55150
35564,55058
35505,55201
35505,55397
35580,55579
35719,55718
35901,55794
36097,55794
36149,55773
36276,55900
34200,55900
34200,59800
34540,59800
34312,59894
34045,60161
33900,60510
33899,60888
34044,61237
34311,61504
34660,61649
35038,61650
35387,61505
35654,61238
35799,60889
35800,60511
35655,60162
35388,59895
35159,59800
36800,59800
36800,56028
37577,56028
37505,56201
37505,56397
37580,56579
37719,56718
37901,56794
38097,56794
38279,56719
38418,56580
38440,56528
38699,56528
38699,56629
38722,56684
38764,56727
38820,56749
38879,56750
39479,56750
39534,56727
39577,56685
39599,56629
39600,56570
39600,56028
41800,56028
41887,56011
41961,55961
42561,55361
43161,54761
43211,54687
43228,54600
43228,52144
43443,51929
43424,51975
43425,52187
43487,52250
43900,52250
43900,51837
43837,51775
43724,51774
43625,51775
43579,51793
45461,49911
45511,49837
45511,49837
45514,49823
45528,49750
45528,49750
45528,49678
45569,49718
45751,49794
45947,49794
46129,49719
46268,49580
46290,49528
46559,49528
46580,49579
46719,49718
46901,49794
47097,49794
47279,49719
47320,49678
47320,49921
47280,49881
47098,49805
46902,49805
46720,49880
46581,50019
46559,50071
46290,50071
46269,50020
46130,49881
45948,49805
45752,49805
45570,49880
45431,50019
45355,50201
45355,50397
45430,50579
45569,50718
45751,50794
45947,50794
46129,50719
46268,50580
46290,50528
46559,50528
46580,50579
46719,50718
46901,50794
47097,50794
47279,50719
47320,50678
47320,50921
47280,50881
47098,50805
46902,50805
46720,50880
46581,51019
46559,51071
46290,51071
46269,51020
46130,50881
45948,50805
45752,50805
45570,50880
45431,51019
45355,51201
45355,51397
45430,51579
45569,51718
45751,51794
45947,51794
46129,51719
46268,51580
46290,51528
46559,51528
46580,51579
46719,51718
46901,51794
47097,51794
47279,51719
47320,51678
47320,51921
47280,51881
47098,51805
46902,51805
46720,51880
46581,52019
46559,52071
46275,52071
46275,51995
46252,51940
46210,51897
46154,51875
46095,51874
45545,51874
45490,51897
45447,51939
45425,51995
45424,52054
45424,52604
45447,52659
45489,52702
45545,52724
45604,52725
46154,52725
46209,52702
46252,52660
46274,52604
46275,52545
46275,52528
46559,52528
46580,52579
46719,52718
46901,52794
47097,52794
47279,52719
47320,52678
47320,52921
47280,52881
47098,52805
46902,52805
46720,52880
46581,53019
46559,53071
46290,53071
46269,53020
46130,52881
45948,52805
45752,52805
45570,52880
45431,53019
45355,53201
45355,53397
45430,53579
45569,53718
45751,53794
45947,53794
46129,53719
46268,53580
46290,53528
46559,53528
46580,53579
46719,53718
46901,53794
47097,53794
47279,53719
47320,53678
47320,53921
47280,53881
47098,53805
46902,53805
46720,53880
46581,54019
46559,54071
46290,54071
46269,54020
46130,53881
45948,53805
45752,53805
45570,53880
45431,54019
45355,54201
45355,54397
45430,54579
45569,54718
45751,54794
45947,54794
46129,54719
46268,54580
46290,54528
46559,54528
46580,54579
46719,54718
46901,54794
47097,54794
47279,54719
47320,54678
47320,54921
47280,54881
47098,54805
46902,54805
46720,54880
46581,55019
46559,55071
46290,55071
46269,55020
46130,54881
45948,54805
45752,54805
45570,54880
45431,55019
45355,55201
45355,55397
45430,55579
45569,55718
45751,55794
45947,55794
46129,55719
46268,55580
46290,55528
46559,55528
46580,55579
46719,55718
46901,55794
47097,55794
47279,55719
47320,55678
47320,55921
47280,55881
47098,55805
46902,55805
46720,55880
46581,56019
46559,56071
46290,56071
46269,56020
46130,55881
45948,55805
45752,55805
45570,55880
45431,56019
45355,56201
45355,56397
45430,56579
45569,56718
45751,56794
45947,56794
46129,56719
46268,56580
46290,56528
46559,56528
46580,56579
46719,56718
46901,56794
47097,56794
47279,56719
47320,56678
47320,56921
47280,56881
47098,56805
46902,56805
46720,56880
46581,57019
46559,57071
46290,57071
46269,57020
46130,56881
45948,56805
45752,56805
45570,56880
45431,57019
45355,57201
45355,57397
45430,57579
45569,57718
45751,57794
45947,57794
46129,57719
46268,57580
46290,57528
46559,57528
46580,57579
46719,57718
46901,57794
47097,57794
47279,57719
47320,57678
47320,57921
47280,57881
47098,57805
46902,57805
46720,57880
46581,58019
46559,58071
46290,58071
46269,58020
46130,57881
45948,57805
45752,57805
45570,57880
45431,58019
45355,58201
45355,58397
45430,58579
45569,58718
45751,58794
45947,58794
46129,58719
46268,58580
46290,58528
46559,58528
46580,58579
46719,58718
46901,58794
47097,58794
47279,58719
47320,58678
47320,58921
47280,58881
47098,58805
46902,58805
46720,58880
46581,59019
46559,59071
46290,59071
46269,59020
46130,58881
45948,58805
45752,58805
45570,58880
45431,59019
45355,59201
45355,59397
45430,59579
45569,59718
45751,59794
45947,59794
46129,59719
46268,59580
46290,59528
46559,59528
46580,59579
46719,59718
46901,59794
47097,59794
47279,59719
47320,59678
47320,59921
47280,59881
47098,59805
46902,59805
46720,59880
46581,60019
46559,60071
46290,60071
46269,60020
46130,59881
45948,59805
45752,59805
45570,59880
45431,60019
45355,60201
45355,60397
45430,60579
45569,60718
45751,60794
45947,60794
46129,60719
46268,60580
46290,60528
46559,60528
46580,60579
46719,60718
46901,60794
47097,60794
47279,60719
47320,60678
47320,60921
47280,60881
47098,60805
46902,60805
46720,60880
46581,61019
46559,61071
46290,61071
46269,61020
46130,60881
45948,60805
45752,60805
45570,60880
45431,61019
45355,61201
45355,61397
45430,61579
45569,61718
45751,61794
45947,61794
46129,61719
46268,61580
46290,61528
46559,61528
46580,61579
46719,61718
46901,61794
47097,61794
47279,61719
47320,61678
47320,62120
" /> 
</g>
<g style="fill:#FFFFFF; fill-opacity:0.0; 
stroke:#FFFFFF; stroke-width:39.3701; stroke-opacity:1; 
stroke-linecap:round; stroke-linejoin:round;">
</g>
<g style="fill:#FFFFFF; fill-opacity:1.0; 
stroke:#FFFFFF; stroke-width:39.3701; stroke-opacity:1; 
stroke-linecap:round; stroke-linejoin:round;">
<circle cx="40800" cy="47550" r="177.165" /> 
<circle cx="40800" cy="44550" r="177.165" /> 
<circle cx="35000" cy="51300" r="177.165" /> 
<circle cx="36000" cy="51300" r="177.165" /> 
<circle cx="35000" cy="52300" r="177.165" /> 
<circle cx="36000" cy="52300" r="177.165" /> 
<circle cx="35000" cy="53300" r="177.165" /> 
<circle cx="36000" cy="53300" r="177.165" /> 
<circle cx="35000" cy="54300" r="177.165" /> 
<circle cx="36000" cy="54300" r="177.165" /> 
<circle cx="35000" cy="55300" r="177.165" /> 
<circle cx="36000" cy="55300" r="177.165" /> 
<circle cx="45850" cy="52300" r="140.315" /> 
<circle cx="45850" cy="53300" r="177.165" /> 
<circle cx="45850" cy="54300" r="177.165" /> 
<circle cx="45850" cy="55300" r="177.165" /> 
<circle cx="45850" cy="56300" r="177.165" /> 
<circle cx="45850" cy="57300" r="177.165" /> 
<circle cx="45850" cy="58300" r="177.165" /> 
<circle cx="45850" cy="59300" r="177.165" /> 
<circle cx="45850" cy="60300" r="177.165" /> 
<circle cx="45850" cy="61300" r="177.165" /> 
<circle cx="43950" cy="52300" r="177.165" /> 
<circle cx="43950" cy="53300" r="177.165" /> 
<circle cx="43950" cy="54300" r="177.165" /> 
<circle cx="43950" cy="55300" r="177.165" /> 
<circle cx="43950" cy="56300" r="177.165" /> 
<circle cx="43950" cy="57300" r="177.165" /> 
<circle cx="43950" cy="58300" r="177.165" /> 
<circle cx="43950" cy="59300" r="177.165" /> 
<circle cx="43950" cy="60300" r="177.165" /> 
<circle cx="43950" cy="61300" r="177.165" /> 
<circle cx="45850" cy="42300" r="180.315" /> 
<circle cx="45850" cy="43300" r="177.165" /> 
<circle cx="45850" cy="44300" r="177.165" /> 
<circle cx="45850" cy="45300" r="177.165" /> 
<circle cx="39150" cy="43300" r="180.315" /> 
<circle cx="39150" cy="44300" r="177.165" /> 
<circle cx="39150" cy="45300" r="177.165" /> 
<circle cx="39150" cy="46300" r="177.165" /> 
<circle cx="39150" cy="56300" r="180.315" /> 
<circle cx="39150" cy="57300" r="177.165" /> 
<circle cx="39150" cy="58300" r="177.165" /> 
<circle cx="39150" cy="59300" r="177.165" /> 
<circle cx="39150" cy="60300" r="177.165" /> 
<circle cx="39150" cy="61300" r="177.165" /> 
<circle cx="45850" cy="46300" r="180.315" /> 
<circle cx="45850" cy="47300" r="177.165" /> 
<circle cx="45850" cy="48300" r="177.165" /> 
<circle cx="45850" cy="49300" r="177.165" /> 
<circle cx="45850" cy="50300" r="177.165" /> 
<circle cx="45850" cy="51300" r="177.165" /> 
<circle cx="34850" cy="42900" r="580.315" /> 
<circle cx="34850" cy="60700" r="580.315" /> 
<circle cx="38000" cy="42300" r="177.165" /> 
<circle cx="38000" cy="43300" r="177.165" /> 
<circle cx="38000" cy="44300" r="177.165" /> 
<circle cx="38000" cy="45300" r="177.165" /> 
<circle cx="38000" cy="46300" r="177.165" /> 
<circle cx="38000" cy="47300" r="177.165" /> 
<circle cx="38000" cy="48300" r="177.165" /> 
<circle cx="38000" cy="49300" r="177.165" /> 
<circle cx="38000" cy="50300" r="177.165" /> 
<circle cx="38000" cy="51300" r="177.165" /> 
<circle cx="38000" cy="52300" r="177.165" /> 
<circle cx="38000" cy="53300" r="177.165" /> 
<circle cx="38000" cy="54300" r="177.165" /> 
<circle cx="38000" cy="55300" r="177.165" /> 
<circle cx="38000" cy="56300" r="177.165" /> 
<circle cx="38000" cy="57300" r="177.165" /> 
<circle cx="38000" cy="58300" r="177.165" /> 
<circle cx="38000" cy="59300" r="177.165" /> 
<circle cx="38000" cy="60300" r="177.165" /> 
<circle cx="38000" cy="61300" r="177.165" /> 
<circle cx="47000" cy="61300" r="177.165" /> 
<circle cx="47000" cy="60300" r="177.165" /> 
<circle cx="47000" cy="59300" r="177.165" /> 
<circle cx="47000" cy="58300" r="177.165" /> 
<circle cx="47000" cy="57300" r="177.165" /> 
<circle cx="47000" cy="56300" r="177.165" /> 
<circle cx="47000" cy="55300" r="177.165" /> 
<circle cx="47000" cy="54300" r="177.165" /> 
<circle cx="47000" cy="53300" r="177.165" /> 
<circle cx="47000" cy="52300" r="177.165" /> 
<circle cx="47000" cy="51300" r="177.165" /> 
<circle cx="47000" cy="50300" r="177.165" /> 
<circle cx="47000" cy="49300" r="177.165" /> 
<circle cx="47000" cy="48300" r="177.165" /> 
<circle cx="47000" cy="47300" r="177.165" /> 
<circle cx="47000" cy="46300" r="177.165" /> 
<circle cx="47000" cy="45300" r="177.165" /> 
<circle cx="47000" cy="44300" r="177.165" /> 
<circle cx="47000" cy="43300" r="177.165" /> 
<circle cx="47000" cy="42300" r="177.165" /> 
<circle cx="35400" cy="45700" r="177.165" /> 
<circle cx="35400" cy="44700" r="177.165" /> 
</g> 
</svg>
